<?xml version="1.0" encoding="utf-8"?>
<!-- Generator: Adobe Illustrator 25.1.0, SVG Export Plug-In . SVG Version: 6.00 Build 0)  -->
<svg version="1.1" xmlns="http://www.w3.org/2000/svg" xmlns:xlink="http://www.w3.org/1999/xlink" x="0px" y="0px"
	 viewBox="0 0 1800 1500" style="enable-background:new 0 0 1800 1500;" xml:space="preserve">
<style type="text/css">
	.st0{fill:#636464;}
	.st1{fill:#40403F;}
	.st2{fill:#1C1D1D;}
	.st3{font-family:'Inter-Black';}
	.st4{font-size:363.5349px;}
	.st5{font-size:224.6915px;}
</style>
<g id="Layer_2">
	<path class="st0" d="M477.2,633l-319.4,706c-5,7.2,3.2,25.1,19.3,41.2c16.8,16.8,35.6,25.1,42.1,18.6l707.6-310.2L477.2,633z"/>
	
		<ellipse transform="matrix(0.7071 -0.7071 0.7071 0.7071 -383.8238 757.4377)" class="st1" cx="722.4" cy="842" rx="126.8" ry="327.9"/>
	<g>
		<g>
			<path class="st0" d="M1409,897.3c-0.1,0-0.2,0-0.3,0c-72.7-1.5-82.4-7.8-174.8-67.8c-9-5.9-18.9-12.2-29.7-19.2
				c-35.5-22.9-69-31-99.7-24.1c-44.6,10-69.2,48.8-69.4,49.2c-4,6.4-12.4,8.4-18.8,4.4c-6.4-4-8.4-12.3-4.5-18.7
				c1.2-2,30.5-48.7,86.3-61.4c38.2-8.7,78.9,0.7,120.8,27.8c10.8,7,20.7,13.4,29.7,19.3c92,59.7,95.6,62.1,160.5,63.4
				c7.5,0.2,13.5,6.4,13.3,13.9C1422.4,891.4,1416.4,897.3,1409,897.3z"/>
		</g>
	</g>
	<g>
		<path class="st1" d="M1009.8,663.4c-19.5,0-32.3-2-33.3-2.2c-7.4-1.2-12.5-8.2-11.3-15.6c1.2-7.4,8.2-12.5,15.6-11.3l0,0
			c0.4,0.1,41.4,6.4,88.2-5.2c61.1-15.1,103.2-52.5,125.1-111c4.1-10.9,8-21.4,11.7-31.6c49.3-133.4,76.5-206.9,190.8-219.3
			c7.5-0.8,14.2,4.6,15,12.1c0.8,7.5-4.6,14.2-12.1,15c-97.5,10.5-119.7,70.4-168.2,201.7c-3.8,10.2-7.7,20.7-11.7,31.7
			c-25,66.8-75.1,111.2-145,128.2C1050.1,661.8,1027.3,663.4,1009.8,663.4z"/>
	</g>
	<g>
		<g>
			<path class="st0" d="M835.4,596.6c-4.8,0-9.4-2.5-11.9-7c-3.7-6.6-1.3-14.9,5.2-18.5c0.5-0.3,30.6-17.6,52.9-50.2
				c29.1-42.7,31.7-90.9,7.7-143.5c-34-74.6-34.4-143.9-28.7-188.9c6.2-48.9,20.4-80.2,21-81.5c3.2-6.8,11.3-9.8,18.1-6.7
				c6.8,3.2,9.8,11.3,6.7,18.1c-0.1,0.3-13.3,29.5-18.8,74.5c-5.1,41.3-4.6,104.8,26.6,173.2c35.3,77.5,13.7,135.8-10.6,171.1
				c-26,37.6-60,56.9-61.4,57.7C839.9,596.1,837.6,596.6,835.4,596.6z"/>
		</g>
	</g>
	<circle class="st0" cx="725.4" cy="266.1" r="45.5"/>
	<circle class="st1" cx="1026.5" cy="333.2" r="38.5"/>
	<circle class="st0" cx="1137.6" cy="966.1" r="50.9"/>
	<polygon class="st1" points="541.5,391.8 592.3,405.5 632.4,371.4 635.1,424 679.9,451.7 630.7,470.4 618.3,521.6 585.2,480.6 
		532.7,484.6 561.5,440.5 	"/>
	<polygon class="st0" points="1205.4,194.4 1161.9,196.5 1138.9,233.5 1123.5,192.7 1081.2,182.3 1115.2,155.1 1112,111.6 
		1148.5,135.5 1188.8,119.1 1177.3,161.1 	"/>
	<polygon class="st1" points="1451.2,708.3 1396.1,712.4 1368.1,760 1347.3,708.9 1293.3,697.1 1335.5,661.4 1330.1,606.4 
		1377,635.6 1427.6,613.4 1414.4,667 	"/>
	<path class="st1" d="M479.1,696.3c0,0,5.9,238.4,285.2,463.4l-84.9,37.2c0,0-255.8-151.5-272.7-408.2L477.2,633l26.7,54.1
		L479.1,696.3z"/>
	<path class="st1" d="M343.1,929.3c0,0,32.2,179.3,189,332.2L430,1306.3c0,0-95-92-139-261.9L343.1,929.3z"/>
	<path class="st1" d="M220.8,1199.6c0,0,0.9,104.2,61.8,171.3l-63.5,27.8c0,0-34.8-25.3-46.6-92.5L220.8,1199.6z"/>
</g>
<g id="Text">
	<text transform="matrix(0.9848 0 -0.1736 0.9848 1269.2239 1124.9211)" class="st2 st3 st4">2x</text>
	<text transform="matrix(0.9848 0 -0.1736 0.9848 918.8018 1352.3828)" class="st2 st3 st5">30 min</text>
</g>
</svg>
