<?xml version="1.0" encoding="utf-8"?>
<!-- Generator: Adobe Illustrator 25.1.0, SVG Export Plug-In . SVG Version: 6.00 Build 0)  -->
<svg version="1.1" id="Layer_2" xmlns="http://www.w3.org/2000/svg" xmlns:xlink="http://www.w3.org/1999/xlink" x="0px" y="0px"
	 viewBox="0 0 1000 1000" style="enable-background:new 0 0 1000 1000;" xml:space="preserve">
<style type="text/css">
	.st0{fill:#383838;}
	.st1{fill:#FFFFFF;}
	.st2{fill:#CFCFCE;}
	.st3{fill:none;stroke:#FFFFFF;stroke-width:20;stroke-linecap:round;stroke-miterlimit:10;}
	.st4{fill:none;stroke:#CFCFCE;stroke-width:20;stroke-linecap:round;stroke-miterlimit:10;}
</style>
<rect class="st0" width="1004.2" height="1004.2"/>
<path class="st1" d="M260.4,409.5l-234.4,518c-3.7,5.3,2.4,18.4,14.2,30.2c12.3,12.3,26.1,18.4,30.9,13.7l519.2-227.6L260.4,409.5z"
	/>
<ellipse transform="matrix(0.7071 -0.7071 0.7071 0.7071 -269.0572 476.2433)" class="st2" cx="440.3" cy="562.9" rx="93" ry="240.6"/>
<path class="st3" d="M661.2,552.7c0,0,48.6-79.2,138-21.5s89.4,61.1,144.8,62.2"/>
<path class="st4" d="M628.4,420.4c0,0,125.6,20.4,167.4-91.6s56.6-168.6,140.3-177.6"/>
<path class="st3" d="M523.2,372.9c0,0,95-53.2,48.6-155c-46.4-101.8-5.7-190-5.7-190"/>
<circle class="st1" cx="442.5" cy="140.4" r="33.4"/>
<circle class="st2" cx="663.5" cy="189.6" r="28.3"/>
<circle class="st1" cx="744.9" cy="653.9" r="37.3"/>
<polygon class="st2" points="307.6,232.6 344.9,242.7 374.4,217.7 376.3,256.2 409.2,276.5 373.1,290.3 364,327.8 339.7,297.7 
	301.2,300.7 322.3,268.3 "/>
<polygon class="st1" points="794.7,87.8 762.8,89.3 745.9,116.4 734.6,86.6 703.6,78.9 728.5,58.9 726.2,27.1 752.9,44.6 
	782.5,32.5 774.1,63.4 "/>
<polygon class="st2" points="975,464.8 934.6,467.8 914.1,502.7 898.8,465.2 859.2,456.5 890.2,430.4 886.2,390.1 920.6,411.4 
	957.7,395.2 948.1,434.5 "/>
<path class="st2" d="M261.8,456c0,0,4.3,174.9,209.2,340l-62.3,27.3c0,0-187.6-111.2-200.1-299.5l51.7-114.3l19.6,39.7L261.8,456z"
	/>
<path class="st2" d="M162.1,626.9c0,0,23.7,131.5,138.7,243.7l-74.9,32.8c0,0-69.7-67.5-102-192.2L162.1,626.9z"/>
<path class="st2" d="M72.3,825.3c0,0,0.6,76.4,45.3,125.7l-46.6,20.4c0,0-25.5-18.6-34.2-67.8L72.3,825.3z"/>
</svg>
