<?xml version="1.0" encoding="utf-8"?>
<!-- Generator: Adobe Illustrator 25.1.0, SVG Export Plug-In . SVG Version: 6.00 Build 0)  -->
<svg version="1.1" id="Layer_2_1_" xmlns="http://www.w3.org/2000/svg" xmlns:xlink="http://www.w3.org/1999/xlink" x="0px" y="0px"
	 viewBox="0 0 1000 1000" style="enable-background:new 0 0 1000 1000;" xml:space="preserve">
<style type="text/css">
	.st0{fill:#72A4D8;}
</style>
<g>
	<path class="st0" d="M832.3,705.7c5.2,0,9.5-4.3,9.5-9.5v-66c0-5.2-4.3-9.5-9.5-9.5H732c-5.2,0-9.5,4.3-9.5,9.5v66
		c0,5.2,4.3,9.5,9.5,9.5H832.3z"/>
	<path class="st0" d="M698.1,705.7c5.2,0,9.5-4.3,9.5-9.5v-66c0-5.2-4.3-9.5-9.5-9.5H597.8c-5.2,0-9.5,4.3-9.5,9.5v66
		c0,5.2,4.3,9.5,9.5,9.5H698.1z"/>
	<path class="st0" d="M860.4,630.2v66c0,5.2,4.3,9.5,9.5,9.5h58.4c13-27,23.5-55.4,31.3-85H870C864.6,620.7,860.4,625,860.4,630.2z"
		/>
	<path class="st0" d="M484.7,215.8c0.3,4.2,4,7.4,8.2,7.4H702c4.6,0,8.2-3.8,7.9-8.5c-0.3-4.2-4-7.4-8.2-7.4H492.5
		C488,207.4,484.4,211.2,484.7,215.8z"/>
	<path class="st0" d="M466.6,705.7c4.6,0,8.5-3.3,9.3-7.8l11.9-66c1.1-5.8-3.4-11.2-9.3-11.2H429c-3.1,0-6.1,1.5-7.8,4.1l-45.4,66
		c-4.3,6.3,0.2,14.9,7.8,14.9H466.6z"/>
	<path class="st0" d="M966.7,410.9l-0.5,2.6H415.5l-63-107.1c-3.7-6.3,0.8-14.3,8.2-14.3h58.7l30.2-62.5h-15.4L422,198.9h40.6
		l16.8-37c1.5-3.4,4.9-5.6,8.7-5.6h56.8l24.3-47.1L500,93.4h76.1l24.8-46.6v45.1h54.3l-54.3,17.3v47.1h101.9c3.7,0,7.1,2.2,8.7,5.6
		l24.2,54.2c1.5,3.4,4.9,5.6,8.7,5.6h91.9c3.7,0,7.1-2.2,8.6-5.5l13.2-28.4C770.9,88,642.8,25,500,25C237.7,25,25,237.7,25,500
		s212.7,475,475,475c101.5,0,195.6-31.9,272.8-86.1H330c-5.3,0-9.7-4.3-9.7-9.7s4.3-9.7,9.7-9.7h468.4c1.9-1.5,3.8-3.1,5.7-4.7
		c-1.7,0.1-3.3,0.2-5,0.2c-32.6,0-59-26.4-59-59c0-0.7,0-1.3,0.1-2h124.6c0,0,0,0,0,0.1c4.5-5.3,8.8-10.8,13-16.3h-571v-33.5
		L423.5,587H967c5.2-28.3,8-57.4,8-87.2C975,469.5,972.1,439.8,966.7,410.9z M606.4,804.1h117.9c0,0.7,0.1,1.3,0.1,2
		c0,32.6-26.4,59-59,59s-59-26.4-59-59C606.3,805.4,606.3,804.8,606.4,804.1z M356.6,804.1h117.9c0,0.7,0.1,1.3,0.1,2
		c0,32.6-26.4,59-59,59c-32.6,0-59-26.4-59-59C356.5,805.4,356.5,804.8,356.6,804.1z M554.3,527.3H390v0.5L223.2,768.2h-35.4
		l67.4-240.4H121.1l-56,84.8h-24L69.3,500L41.1,387.4h24l54.3,82.2h135l-66.7-237.9h35.4l165,237.9h166c16.1,0.1,29,13,29,28.9
		S570.2,527.3,554.3,527.3z"/>
	<path class="st0" d="M356.5,746.4c0,4.8,3.9,8.7,8.7,8.7h535.6c3.6-5.7,7.2-11.5,10.5-17.3H365.2
		C360.4,737.7,356.5,741.6,356.5,746.4z"/>
	<path class="st0" d="M454.4,286.2c0.3,4.2,4,7.4,8.2,7.4h465.3c-2.6-5.3-5.3-10.6-8-15.9H462.3
		C457.8,277.7,454.1,281.6,454.4,286.2z"/>
	<path class="st0" d="M470.3,250.5c0,4.4,3.6,7.9,7.9,7.9h430.9c-3.2-5.4-6.4-10.6-9.8-15.9h-421
		C473.8,242.5,470.3,246.1,470.3,250.5z"/>
	<path class="st0" d="M508.2,188h180.4c4.6,0,8.2-3.8,7.9-8.5c-0.3-4.2-4-7.4-8.2-7.4H507.9c-4.6,0-8.2,3.8-7.9,8.5
		C500.3,184.8,504,188,508.2,188z"/>
</g>
</svg>
