<svg xmlns="http://www.w3.org/2000/svg" enable-background="new 0 0 34 34" viewBox="0 0 34 34"><path d="M17,1C8.2,1,1,8.2,1,17c0,8.8,7.2,16,16,16c8.8,0,16-7.2,16-16C33,8.2,25.8,1,17,1z M16.9,16c2.2,0,4.1,1.8,4.1,4
		c0,1.9-1,3.4-3,3.9V25c0,0.6-0.4,1-1,1s-1-0.4-1-1v-1.1c-1-0.4-3-2-3-3.9c0-0.6,0.5-1,1.1-1s1,0.4,1,1c0,1.1,0.9,2,2,2s2-0.9,2-2
		s-0.9-2-2-2c-2.2,0-3.9-1.8-3.9-4c0-1.9,2-3.4,3-3.9V9c0-0.6,0.4-1,1-1s1,0.4,1,1v1.1c2,0.4,3,2,3,3.9c0,0.6-0.4,1-0.9,1
		s-1-0.4-1-1c0-1.1-0.9-2-2-2s-2,0.9-2,2S15.8,16,16.9,16z"/></svg>