<?xml version="1.0" encoding="utf-8"?>
<!-- Generator: Adobe Illustrator 25.1.0, SVG Export Plug-In . SVG Version: 6.00 Build 0)  -->
<svg version="1.1" id="Layer_1" xmlns="http://www.w3.org/2000/svg" xmlns:xlink="http://www.w3.org/1999/xlink" x="0px" y="0px"
	 viewBox="0 0 24 24" style="enable-background:new 0 0 24 24;" xml:space="preserve">
<style type="text/css">
	.st0{fill-rule:evenodd;clip-rule:evenodd;}
</style>
<path class="st0" d="M12,24c6.6,0,12-5.4,12-12c0-6.6-5.4-12-12-12C5.4,0,0,5.4,0,12C0,18.6,5.4,24,12,24z M15.6,9.6
	c0,2-1.6,3.6-3.6,3.6s-3.6-1.6-3.6-3.6C8.4,7.6,10,6,12,6S15.6,7.6,15.6,9.6z M4.8,18c1.6-2.2,4.3-3.6,7.2-3.6
	c2.9,0,5.6,1.4,7.2,3.6c-1.6,2.2-4.3,3.6-7.2,3.6C9.1,21.6,6.4,20.2,4.8,18z"/>
</svg>
